# xmcd
#
# Track frame offsets: 
#        150
#        13555
#        26367
#        38415
#        50355
#        63085
#        76500
#        89240
#        103152
#        115482
#        129572
#        143535
#        155685
#        167860
#        181155
#        193687
#        208077
#        221637
#        234895
#        247892
#        261927
#        275250
#        288905
#        301617
#        312807
#        325762
#        339080
#
# Disc length: 4684 seconds
#
# Revision: 1
# Processed by: cddbd v1.5.2PL0 Copyright (c) Steve Scherf et al.
# Submitted via: ExactAudioCopyFreeDBPlugin 1.0
#
DISCID=66124a1b
DTITLE=Rev. Edward W. Clayborn (The Guitar Evangelist) - Complete Reco
DTITLE=rded Works 1926-1928 In Chronological Order
DYEAR=1992
DGENRE=Blues
TTITLE0=Your Enemy Cannot Harm You
TTITLE1=The Gospel Train Is Coming
TTITLE2=Let That Lie Alone (c-733)
TTITLE3=Let That Lie Alone (c-734)
TTITLE4=There`ll Be Glory (c-737)
TTITLE5=Death Is Only A Dream
TTITLE6=Let Jesus Lead You
TTITLE7=Jesus Will Make It All Right
TTITLE8=Bye And Bye When The Morning Comes
TTITLE9=Jesus Is Sweeter Than Honey In The Comb
TTITLE10=With My Saviour I Shall Be
TTITLE11=O Lord, I'm In Your Care
TTITLE12=Everybody Ought To Treat Their Mother Right
TTITLE13=Then We'll Need That True Religion
TTITLE14=You Never Will Know Who Is Your Friend
TTITLE15=In Time Of Trouble Jesus Will Never Say Goodbye
TTITLE16=A Letter From Father
TTITLE17=God's Riding Through The Land
TTITLE18=Men Don't Forget Your Wives For Your Sweetheart
TTITLE19=If My Saviour Holds My Hand I Will Go
TTITLE20=Jesus Went On Man's Bond
TTITLE21=I Heard The Angels Sing
TTITLE22=I Shall Not Be Moved
TTITLE23=The Wrong Way To Celebrate Christmas 
TTITLE24=This Time Another Year You May Be Gone
TTITLE25=I Have A Home In The Sky
TTITLE26=Just Beyond The Jordan River
EXTD=
EXTT0=
EXTT1=
EXTT2=
EXTT3=
EXTT4=
EXTT5=
EXTT6=
EXTT7=
EXTT8=
EXTT9=
EXTT10=
EXTT11=
EXTT12=
EXTT13=
EXTT14=
EXTT15=
EXTT16=
EXTT17=
EXTT18=
EXTT19=
EXTT20=
EXTT21=
EXTT22=
EXTT23=
EXTT24=
EXTT25=
EXTT26=
PLAYORDER=
